<?xml version="1.0" standalone="no"?>
<!DOCTYPE svg PUBLIC "-//W3C//DTD SVG 20010904//EN"
 "http://www.w3.org/TR/2001/REC-SVG-20010904/DTD/svg10.dtd">
<svg version="1.0" xmlns="http://www.w3.org/2000/svg"
 width="512.000000pt" height="512.000000pt" viewBox="0 0 512.000000 512.000000"
 preserveAspectRatio="xMidYMid meet">

<g transform="translate(0.000000,512.000000) scale(0.100000,-0.100000)"
fill="#000000" stroke="none">
<path d="M96 4035 c-105 -37 -115 -118 -46 -367 118 -417 399 -967 762 -1486
149 -214 247 -333 387 -472 320 -318 688 -524 1080 -607 110 -23 150 -27 316
-27 197 -1 270 11 332 51 56 37 58 49 63 420 5 327 6 343 26 370 31 42 86 57
159 44 178 -32 349 -172 880 -719 78 -80 125 -120 165 -140 l55 -27 355 0
c195 0 367 3 382 7 43 13 87 56 98 99 40 149 -144 412 -686 976 -277 288 -276
286 -154 463 515 743 740 1139 740 1303 0 56 -34 102 -88 117 -22 6 -171 10
-363 10 -370 0 -403 -5 -465 -67 -20 -20 -46 -57 -57 -82 -198 -456 -488 -922
-717 -1151 -158 -159 -257 -190 -307 -97 -17 29 -18 85 -23 662 -5 687 -4 665
-63 709 -28 21 -40 21 -505 24 -319 2 -489 0 -514 -8 -52 -15 -88 -61 -88
-113 0 -45 9 -62 84 -159 55 -70 87 -134 112 -223 15 -52 18 -121 22 -528 4
-502 -1 -583 -39 -623 -46 -49 -132 -24 -230 67 -205 190 -507 707 -693 1184
-113 287 -118 298 -160 341 -25 25 -57 46 -81 53 -63 17 -689 14 -739 -4z"/>
</g>
</svg>
